<svg width="31" height="31" viewBox="0 0 31 31" fill="none" xmlns="http://www.w3.org/2000/svg">
<rect x="0.75" y="0.892822" width="30" height="30" rx="6" fill="#FDDE67"/>
<g clip-path="url(#clip0_5419_133)">
<path d="M22.892 10.6108C22.7045 10.3858 22.4697 10.2048 22.2044 10.0807C21.939 9.95661 21.6496 9.89246 21.3567 9.89282H10.578L10.55 9.65882C10.4927 9.17243 10.2589 8.72398 9.89299 8.39847C9.52706 8.07297 9.05442 7.89305 8.56467 7.89282H8.41667C8.23986 7.89282 8.07029 7.96306 7.94526 8.08808C7.82024 8.21311 7.75 8.38268 7.75 8.55949C7.75 8.7363 7.82024 8.90587 7.94526 9.03089C8.07029 9.15592 8.23986 9.22616 8.41667 9.22616H8.56467C8.72796 9.22618 8.88556 9.28613 9.00758 9.39463C9.1296 9.50314 9.20756 9.65265 9.22667 9.81482L10.144 17.6148C10.2392 18.426 10.629 19.174 11.2393 19.7168C11.8496 20.2596 12.6379 20.5595 13.4547 20.5595H20.4167C20.5935 20.5595 20.763 20.4893 20.8881 20.3642C21.0131 20.2392 21.0833 20.0696 21.0833 19.8928C21.0833 19.716 21.0131 19.5464 20.8881 19.4214C20.763 19.2964 20.5935 19.2262 20.4167 19.2262H13.4547C13.042 19.225 12.6399 19.0962 12.3033 18.8575C11.9667 18.6188 11.7122 18.2819 11.5747 17.8928H19.5213C20.3029 17.8929 21.0596 17.6183 21.6592 17.1171C22.2589 16.6159 22.6634 15.92 22.802 15.1508L23.3253 12.2482C23.3776 11.9602 23.3658 11.6642 23.2909 11.3812C23.2161 11.0983 23.0799 10.8353 22.892 10.6108ZM22.0167 12.0115L21.4927 14.9142C21.4094 15.3762 21.1663 15.7942 20.8059 16.095C20.4455 16.3958 19.9908 16.5602 19.5213 16.5595H11.3627L10.7353 11.2262H21.3567C21.4546 11.2256 21.5515 11.2466 21.6404 11.2877C21.7293 11.3287 21.808 11.3889 21.871 11.4639C21.934 11.5389 21.9797 11.6268 22.0049 11.7214C22.0301 11.8161 22.0341 11.9151 22.0167 12.0115Z" fill="#181818"/>
<path d="M12.4168 23.8932C13.1532 23.8932 13.7502 23.2963 13.7502 22.5599C13.7502 21.8235 13.1532 21.2266 12.4168 21.2266C11.6804 21.2266 11.0835 21.8235 11.0835 22.5599C11.0835 23.2963 11.6804 23.8932 12.4168 23.8932Z" fill="#181818"/>
<path d="M19.0833 23.8932C19.8197 23.8932 20.4167 23.2963 20.4167 22.5599C20.4167 21.8235 19.8197 21.2266 19.0833 21.2266C18.347 21.2266 17.75 21.8235 17.75 22.5599C17.75 23.2963 18.347 23.8932 19.0833 23.8932Z" fill="#181818"/>
</g>
<defs>
<clipPath id="clip0_5419_133">
<rect width="16" height="16" fill="white" transform="translate(7.75 7.89282)"/>
</clipPath>
</defs>
</svg>
