<svg width="56" height="57" viewBox="0 0 56 57" fill="none" xmlns="http://www.w3.org/2000/svg">
<g clip-path="url(#clip0_5298_125)">
<path d="M33.5 18.3093C32.3739 18.3268 31.2724 18.6412 30.3067 19.2206C29.341 19.8 28.5453 20.624 28 21.6093C27.4546 20.624 26.6589 19.8 25.6932 19.2206C24.7275 18.6412 23.626 18.3268 22.5 18.3093C20.7049 18.3873 19.0137 19.1726 17.7957 20.4936C16.5778 21.8145 15.9322 23.5639 16 25.3593C16 29.9063 20.786 34.8723 24.8 38.2393C25.6962 38.9925 26.8293 39.4054 28 39.4054C29.1706 39.4054 30.3037 38.9925 31.2 38.2393C35.214 34.8723 40 29.9063 40 25.3593C40.0677 23.5639 39.4221 21.8145 38.2042 20.4936C36.9863 19.1726 35.295 18.3873 33.5 18.3093ZM29.915 36.7093C29.3789 37.1607 28.7007 37.4082 28 37.4082C27.2992 37.4082 26.621 37.1607 26.085 36.7093C20.947 32.3983 18 28.2623 18 25.3593C17.9316 24.094 18.3663 22.8531 19.2093 21.907C20.0523 20.961 21.2352 20.3867 22.5 20.3093C23.7647 20.3867 24.9476 20.961 25.7906 21.907C26.6336 22.8531 27.0683 24.094 27 25.3593C27 25.6245 27.1053 25.8789 27.2929 26.0664C27.4804 26.254 27.7347 26.3593 28 26.3593C28.2652 26.3593 28.5195 26.254 28.7071 26.0664C28.8946 25.8789 29 25.6245 29 25.3593C28.9316 24.094 29.3663 22.8531 30.2093 21.907C31.0523 20.961 32.2352 20.3867 33.5 20.3093C34.7647 20.3867 35.9476 20.961 36.7906 21.907C37.6336 22.8531 38.0683 24.094 38 25.3593C38 28.2623 35.053 32.3983 29.915 36.7053V36.7093Z" fill="#181818"/>
</g>
<defs>
<clipPath id="clip0_5298_125">
<rect width="24" height="24" fill="white" transform="translate(16 16.3928)"/>
</clipPath>
</defs>
</svg>
